<svg id="visual" viewBox="0 0 675 900" width="675" height="900" xmlns="http://www.w3.org/2000/svg" xmlns:xlink="http://www.w3.org/1999/xlink" version="1.1"><rect x="0" y="0" width="675" height="900" fill="#7555D3"></rect><path d="M0 531L28.2 521.5C56.3 512 112.7 493 169 488.3C225.3 483.7 281.7 493.3 337.8 514.5C394 535.7 450 568.3 506.2 583.2C562.3 598 618.7 595 646.8 593.5L675 592L675 901L646.8 901C618.7 901 562.3 901 506.2 901C450 901 394 901 337.8 901C281.7 901 225.3 901 169 901C112.7 901 56.3 901 28.2 901L0 901Z" fill="#211C28" stroke-linecap="round" stroke-linejoin="miter"></path></svg>